InSight (2011) NTSC DVDRip DD5.1 NL Subs
.
[IMG]http://img263.imageshack.us/img263/6744/71324.jpg[/IMG]
.
Verenigde Staten
Thriller
92 minuten

geregisseerd door Richard Gabai
met Natalie Zea, Sean Patrick Flanery en Angeline-Rose Troy

Kaitlyn, een eerste-hulp verpleegkundige, buigt zich over een jong slachtoffer van een steekpartij. Hierdoor wordt ze per ongeluk geÙlektrocuteerd door de defibrillator die wordt gebruikt in een poging om de vrouw te redden. Bijna onmiddellijk begint Kaitlyn de herinneringen van het slachtoffer te ervaren. Ze wendt zich tot haar familie, vrienden en de politie maar niemand neemt haar serieus. Ze besluit dat ze zelf moet proberen om de misdaad op te lossen of het risico te lopen dat de angstaanjagende visioenen haar eigen leven op het spel zetten. Uiteindelijk neemt ze de zaak op met de rechercheur die op de zaak zit en baant zich een weg door het verleden van het slachtoffer om de wrede waarheid te ontdekken.
. 
http://www.moviemeter.nl/film/71324
.
PLOT
.
Kaitlyn, an ER nurse who is tending to a young stabbing victim, is accidentally electrocuted by the defibrillator that is used in an effort to save the woman's life...
. 
http://www.imdb.com/title/tt1687277/
.
INFO
.
Source: Insight.2011.DVDRiP.AC3-5.1.XviD-SiC 
Source was out of synch 300ms that problem is solved, so now in synch.
MPC and VirtualDub used for that problem.
Video: NTSC @2Passes TMPGEnc 5005kbps
Audio: English DD5.1 448kbps
Subs: Dutch
NL Vertaling: One2Sub subbers : Watchman en Nick
.
Notes:
Vertalers staan bekend als google vertalers, ze doen hun best dus ga niet klagen over de ondertiteling.
Ik heb de subs op te lange regels na gelopen en aangepast waar nodig en deze release gemaakt.
Ze hadden zelf ook een dvd gemaakt van 1.7 gb en een groot lettertype gekozen en dan ook
output extra dik, ja je hebt dan een scherm vol ondertitels, niet erg prettig kijken.
.
Maar goed alles is overwonnen in deze release, en krijgen jullie weer de beste kwaliteit op dit moment beschikbaar.
.
Enjoy
.
info first vob
.
Format                                   : MPEG-PS
File size                                : 1 024 MiB
Duration                                 : 24mn 2s
Overall bit rate mode                    : Variable
Overall bit rate                         : 5 953 Kbps
Writing library                          : encoded by TMPGEnc Authoring Works 4 Version. 4.0.11.39

Video
ID                                       : 224 (0xE0)
Format                                   : MPEG Video
Format version                           : Version 2
Format profile                           : Main@Main
Format settings, BVOP                    : Yes
Format settings, Matrix                  : Custom
Duration                                 : 24mn 2s
Bit rate mode                            : Variable
Bit rate                                 : 5 386 Kbps
Maximum bit rate                         : 8 000 Kbps
Width                                    : 720 pixels
Height                                   : 480 pixels
Display aspect ratio                     : 16:9
Frame rate                               : 23.976 fps
Standard                                 : NTSC
Color space                              : YUV
Chroma subsampling                       : 4:2:0
Bit depth                                : 8 bits
Scan type                                : Progressive
Scan order                               : 2:3 Pulldown
Compression mode                         : Lossy
Bits/(Pixel*Frame)                       : 0.650
Stream size                              : 926 MiB (90%)
Writing library                          : TMPGEnc Authoring Works 4 Version. 4.0.11.39
Color primaries                          : SMPTE 170M
Transfer characteristics                 : SMPTE 170M
Matrix coefficients                      : SMPTE 170M

Audio
ID                                       : 189 (0xBD)-128 (0x80)
Format                                   : AC-3
Format/Info                              : Audio Coding 3
Mode extension                           : CM (complete main)
Muxing mode                              : DVD-Video
Duration                                 : 24mn 2s
Bit rate mode                            : Constant
Bit rate                                 : 448 Kbps
Channel(s)                               : 6 channels
Channel positions                        : Front: L C R, Side: L R, LFE
Sampling rate                            : 48.0 KHz
Bit depth                                : 16 bits
Compression mode                         : Lossy
Stream size                              : 77.0 MiB (8%)

Text #1
ID                                       : 189 (0xBD)-32 (0x20)
Format                                   : RLE
Format/Info                              : Run-length encoding
Muxing mode                              : DVD-Video
Duration                                 : 23mn 29s
Delay relative to video                  : 27s 928ms
